<?xml version="1.0" encoding="utf-8"?>
<!-- Generator: Adobe Illustrator 23.1.0, SVG Export Plug-In . SVG Version: 6.00 Build 0)  -->
<svg version="1.1" id="Layer_1" xmlns="http://www.w3.org/2000/svg" xmlns:xlink="http://www.w3.org/1999/xlink" x="0px" y="0px"
	 viewBox="0 0 227.5 227.5" style="enable-background:new 0 0 227.5 227.5;" xml:space="preserve">
<style type="text/css">
	.st0{fill:#00BCD4;}
</style>
<g>
	<path class="st0" d="M113.8,15c54.5,0,98.8,44.3,98.8,98.8s-44.3,98.8-98.8,98.8S15,168.2,15,113.8S59.3,15,113.8,15 M113.8,0
		C50.9,0,0,50.9,0,113.8s50.9,113.8,113.8,113.8s113.8-50.9,113.8-113.8S176.6,0,113.8,0L113.8,0z"/>
</g>
<g>
	<path class="st0" d="M43.6,55.3h14.7v117H43.6V55.3z"/>
	<path class="st0" d="M76,133.3c0-7.9-3-11.7-8.4-14.8c0.5-1.3,0.6-3.6,0.6-5.2s-0.1-3.4-0.6-4.7C73,105.6,76,102,76,94V77.2
		c0-13.9,8.2-22.8,20-22.8c2.9,0,6.7,0.4,10.1,1.4c-0.4,1.7-0.5,3.2-0.5,4.8c0,1.4,0.1,3,0.5,4.7c-14.1,0-14.9,7.5-14.9,14.4V94
		c0,10.5-2.5,15.2-8.7,19.5c6.2,4.7,8.7,9.3,8.7,19.8v14.9c0,7,0.9,13.9,14.9,13.9c-0.4,1.6-0.6,3.1-0.6,4.7s0.3,3.2,0.6,4.8
		c-3.4,1-7.3,1.6-10.1,1.6c-11.8,0-20-9.2-20-23V133.3z"/>
	<path class="st0" d="M118.4,55.3h14.7v117h-14.7V55.3z"/>
	<path class="st0" d="M145.9,167.1c0-1.8-0.3-3.5-0.5-4.9c14,0,14.9-7,14.9-14v-14.8c0-10.5,2.5-15.2,8.7-19.8
		c-6.2-4.3-8.7-9-8.7-19.5V79.6c0-7.3-0.9-14.4-14.9-14.4c0.3-1.4,0.5-3.1,0.5-4.9c0-1.7-0.3-2.5-0.5-4.5c3.5-1,7.3-1.4,10.1-1.4
		c11.8,0,20,9,20,22.8V94c0,7.9,3,11.5,8.4,14.7c-0.4,1.3-0.6,3.5-0.6,5.1c0,1.4,0.3,3.5,0.6,4.8c-5.4,3.1-8.4,6.9-8.4,14.8v16.9
		c0,13.8-8.2,23-20,23c-2.9,0-6.6-0.5-10.1-1.6C145.7,169.5,145.9,168.8,145.9,167.1z"/>
</g>
</svg>
