<svg xmlns="http://www.w3.org/2000/svg" viewBox="0 0 227.52 227.52"><defs><style>.cls-1{fill:#23bcba;}</style></defs><title>Icon</title><g id="Layer_2" data-name="Layer 2"><g id="Layer_1-2" data-name="Layer 1"><path class="cls-1" d="M113.76,15A98.76,98.76,0,1,1,15,113.76,98.87,98.87,0,0,1,113.76,15m0-15A113.76,113.76,0,1,0,227.52,113.76,113.76,113.76,0,0,0,113.76,0Z"/><path class="cls-1" d="M43.59,55.26H58.24v117H43.59Z"/><path class="cls-1" d="M76,133.35c0-7.92-3-11.68-8.43-14.79a16.72,16.72,0,0,0,.65-5.19,13.54,13.54,0,0,0-.65-4.67C73,105.59,76,102,76,94V77.18c0-13.88,8.18-22.83,20-22.83a36.53,36.53,0,0,1,10.12,1.43,21.81,21.81,0,0,0,0,9.47c-14.14,0-14.92,7.52-14.92,14.4V94c0,10.51-2.46,15.18-8.69,19.46,6.23,4.67,8.69,9.34,8.69,19.85v14.91c0,7,.91,13.88,14.92,13.88a19.32,19.32,0,0,0-.65,4.67,20.24,20.24,0,0,0,.65,4.8A37,37,0,0,1,96,173.17c-11.8,0-20-9.21-20-23Z"/><path class="cls-1" d="M118.43,55.26h14.66v117H118.43Z"/><path class="cls-1" d="M145.93,167.07a27.43,27.43,0,0,0-.52-4.93c14,0,14.92-7,14.92-14V133.35c0-10.51,2.46-15.18,8.69-19.85-6.23-4.28-8.69-9-8.69-19.46V79.65c0-7.27-.91-14.4-14.92-14.4a27.43,27.43,0,0,0,.52-4.93,32.26,32.26,0,0,0-.52-4.54,37.09,37.09,0,0,1,10.12-1.43c11.8,0,20,8.95,20,22.83V94c0,7.92,3,11.55,8.43,14.66a21.23,21.23,0,0,0-.64,5.06,19.92,19.92,0,0,0,.64,4.8c-5.44,3.11-8.43,6.87-8.43,14.79v16.86c0,13.75-8.17,23-20,23a37.62,37.62,0,0,1-10.12-1.56A32.26,32.26,0,0,0,145.93,167.07Z"/></g></g></svg>